<svg width="1073" height="835" viewBox="0 0 1073 835" fill="none" xmlns="http://www.w3.org/2000/svg">
<path d="M448.871 805.788C290.371 831.788 146.371 830.288 42.3713 760.288C-61.6287 690.288 -42.7287 677.788 -15.1287 609.788C19.3713 524.788 -55.1287 375.788 -78.1287 267.288C-101.129 158.788 92.8713 60.7884 229.871 107.288C366.871 153.788 551.871 -7.71165 672.371 0.288354C792.871 8.28835 879.371 104.5 895.871 195C912.371 285.5 1024.37 355.288 1065.37 535.788C1106.37 716.288 964.371 866.788 895.871 828.288C827.371 789.788 607.371 779.788 448.871 805.788Z" fill="#99CDC9" fill-opacity="0.4"/>
<path d="M692.225 129.794C670.137 135.09 641.746 127.587 630.312 123.174C621.108 120.14 622.363 112.83 630.312 108.279C638.26 103.728 659.177 119.037 663.36 110.761C667.543 102.486 684.695 97.1076 692.225 100.418C699.755 103.728 717.325 94.6251 721.09 82.2125C724.855 69.7999 748.701 70.2136 752.466 80.1437C756.231 90.0738 747.864 92.5563 775.056 112.83C802.247 133.104 770.454 133.932 763.342 129.794C756.231 125.657 719.835 123.174 692.225 129.794Z" fill="white" fill-opacity="0.6"/>
<path d="M555.024 130.179C546.38 133.885 470.803 132.846 434.094 131.863C428.443 127.483 431.601 123.861 433.263 122.598C434.926 121.334 441.159 125.125 441.159 121.334C441.159 117.544 454.041 106.593 459.859 110.384C465.677 114.174 485.209 112.911 490.196 106.593C495.182 100.275 496.845 98.5908 510.974 95.2214C525.103 91.852 526.765 109.12 532.168 112.911C537.57 116.701 550.868 111.647 559.595 116.701C568.322 121.755 565.828 125.546 555.024 130.179Z" fill="white" fill-opacity="0.6"/>
<path d="M472.086 726.996C360.163 745.355 227.056 717.816 201.282 708.637C175.508 699.457 141.19 650.383 160.679 602.367C185.041 542.348 132.434 437.137 116.193 360.524C99.9513 283.911 236.942 214.712 333.683 247.546C430.424 280.38 515.281 211.64 600.371 217.289C685.461 222.937 751.063 246.21 764.371 309.789C790.371 434 855.23 488.576 904.5 546C977 630.5 845.099 717.855 790.371 726.996C715.5 739.5 584.009 708.637 472.086 726.996Z" fill="#6C9BCE" fill-opacity="0.4"/>
<path d="M786.585 434.693C761.51 448.951 726.767 514.587 712.529 545.622C680.777 597.041 637.368 694.348 717.753 672.223C818.235 644.568 813.011 449.75 805.636 439.302C799.736 430.944 790.477 432.747 786.585 434.693Z" fill="url(#paint0_linear_30:305)" fill-opacity="0.6"/>
<path d="M793.013 455.183C785.638 497.219 745.691 561.606 726.64 588.544V598.684C760.81 560.827 786.56 488.677 795.164 457.334L793.013 455.183Z" fill="white"/>
<path d="M75.7881 547.223C112.817 553.855 124.423 723.802 186.046 690.642L190.192 608.293C143.104 552.142 87.1179 543.907 75.7881 547.223Z" fill="url(#paint1_linear_30:305)" fill-opacity="0.7"/>
<path d="M164.492 613.67C162.502 604.606 130.687 581.154 115.028 570.561L116.133 573.048C135.366 586.312 156.386 608.235 164.492 617.538V613.67Z" fill="white"/>
<path d="M117.839 282.08C57.0132 460.269 140.28 607.643 185.497 563.766L228.034 516.539C235.738 399.644 171.094 319.258 147.313 287.774C128.289 262.586 119.737 273.483 117.839 282.08Z" fill="url(#paint2_linear_30:305)"/>
<path d="M132.564 321.086C133.636 360.743 148.642 394.103 156.01 405.826V392.429C148.24 376.083 139.598 338.056 136.249 321.086H132.564Z" fill="white"/>
<path d="M768.819 707.046V713.246C768.819 718.769 764.341 723.246 758.819 723.246H137.514C131.991 723.246 127.514 718.769 127.514 713.246V707.046C127.514 701.523 131.991 697.046 137.514 697.046H158.394V390.134C157.458 383.272 159.267 369.548 173.99 369.548L704.875 355.513C715.169 354.889 735.131 360.94 732.636 390.134L723.902 697.046H758.819C764.341 697.046 768.819 701.523 768.819 707.046Z" fill="url(#paint3_linear_30:305)"/>
<path d="M171.399 688.766C171.399 700.744 183.041 700.827 188.862 699.371L706.829 698.436C714.314 698.935 717.016 690.326 717.432 685.959L723.669 384.023C723.669 371.297 709.948 367.284 703.087 366.868L189.485 380.592C174.517 381.091 169.112 395.356 168.28 402.426L171.399 688.766Z" fill="url(#paint4_linear_30:305)"/>
<path d="M194.661 498.049C191.34 531.393 193.278 627.682 194.661 671.659C194.661 683.999 207.861 684.896 214.46 683.802C249.8 685.88 332.934 687.806 382.751 678.879C445.022 667.721 645.566 678.223 660.255 678.879C674.945 679.535 681.331 678.879 682.609 646.06C683.886 613.242 691.231 462.933 691.231 429.458C691.231 402.678 676.328 397.515 668.877 398.281C630.876 395.655 581.878 398.281 526.133 398.281H240.007C200.409 398.281 193.278 415.784 194.661 424.535C196.045 435.147 197.982 464.705 194.661 498.049Z" fill="url(#paint5_linear_30:305)"/>
<rect x="174.417" y="495.304" width="3.06844" height="40.3281" rx="1.53422" fill="white"/>
<rect x="174.417" y="404.566" width="3.06844" height="71.8893" rx="1.53422" fill="white"/>
<rect x="264.717" y="384.84" width="3.06845" height="71.8893" rx="1.53422" transform="rotate(90 264.717 384.84)" fill="white"/>
<path d="M195.094 387.927C182.441 387.927 177.503 401.816 177.503 406.755C177.503 411.693 174.417 406.755 174.417 406.755C174.417 389.964 188.202 385.149 195.094 384.84C195.094 384.84 207.748 387.927 195.094 387.927Z" fill="white"/>
<path d="M514.327 413.088C532.227 415.187 577.772 416.27 616.755 403.806C628.357 401.928 651.56 406.458 651.56 439.606L737.508 443.29C739.905 443.145 742.219 443.262 744.375 443.584L737.508 443.29C716.084 444.589 688.156 466.883 708.907 551.316C731.978 645.192 698.189 690.981 678.41 702.14H574.325C571.452 709.433 559.806 724.549 536.204 726.67C512.603 728.792 460.074 605.569 436.76 543.692L514.327 413.088Z" fill="url(#paint6_linear_30:305)"/>
<path d="M580.955 531.758C593.418 630.938 582.722 686.34 575.319 702.472L672.112 700.483C635.318 689.544 646.92 570.542 652.223 481.705C656.466 410.635 633.881 399.718 622.058 403.143C603.164 404.69 568.491 432.579 580.955 531.758Z" fill="url(#paint7_linear_30:305)"/>
<path d="M776.861 532.422C751.933 526.057 718.962 529.77 705.592 532.422C697.305 505.571 698.631 430.325 748.022 443.584C787.534 454.192 783.711 507.229 776.861 532.422Z" fill="url(#paint8_linear_30:305)"/>
<path d="M579.297 418.391C558.082 410.966 562.281 508.996 567.032 558.94H572.336C561.463 445.44 572.446 420.38 579.297 422.038V418.391Z" fill="white"/>
<path d="M567.032 595.071V575.514L572.336 576.84V595.071H567.032Z" fill="white"/>
<path d="M696.529 453.86C662.386 472.091 704.153 535.073 689.568 558.608H693.546C705.147 536.73 669.016 467.451 699.512 457.838L696.529 453.86Z" fill="white"/>
<path d="M224.611 269.224C168.126 269.224 170.579 330.88 178.866 361.708L204.059 673.633C205.385 716.858 236.876 724.792 252.455 723.355L534.878 728.659C534.878 728.659 515.873 709.101 511.675 696.837C507.476 684.572 515.652 298.395 515.652 298.395C515.652 251.457 545.707 273.534 560.734 290.439C560.734 265.247 530.68 261.158 515.652 262.263L224.611 269.224Z" fill="#53CAFF"/>
<path d="M227.263 281.489C177.143 279.103 175.883 339.057 181.518 369.332L209.363 655.402C215.727 715.334 244.279 724.571 257.759 721.698C257.759 721.698 529.243 728.328 517.31 721.698C505.376 715.068 499.078 697.5 496.426 677.611C493.774 657.722 495.984 373.2 501.399 271.545L227.263 281.489Z" fill="url(#paint9_linear_30:305)"/>
<rect x="217.928" y="316.466" width="59.6668" height="60.9927" rx="10" transform="rotate(0.441012 217.928 316.466)" fill="white"/>
<rect x="217.316" y="396.019" width="59.6668" height="60.9927" rx="10" transform="rotate(0.441012 217.316 396.019)" fill="white"/>
<path d="M217.597 359.557L277.262 360.016L277.201 367.916C277.158 373.439 272.647 377.881 267.124 377.839L227.459 377.534C221.936 377.491 217.493 372.98 217.536 367.457L217.597 359.557Z" fill="url(#paint10_linear_30:305)"/>
<path d="M217.513 439.196L277.178 439.655L277.117 447.555C277.075 453.078 272.563 457.52 267.041 457.478L227.375 457.172C221.852 457.13 217.41 452.618 217.452 447.096L217.513 439.196Z" fill="url(#paint11_linear_30:305)"/>
<path d="M304.745 361.934C302.913 360.33 300.167 360.595 298.46 362.348L297.792 363.034L297.134 362.338C295.457 360.559 292.713 360.252 290.855 361.827C288.727 363.635 288.591 366.908 290.468 368.9L296.929 375.75C297.347 376.193 298.03 376.198 298.454 375.762L305.021 369.012C306.931 367.049 306.846 363.774 304.745 361.934Z" fill="url(#paint12_linear_30:305)"/>
<path d="M304.103 445.419C302.27 443.885 299.524 444.137 297.818 445.814L297.149 446.469L296.491 445.803C294.814 444.101 292.069 443.806 290.213 445.312C288.085 447.041 287.95 450.172 289.827 452.078L296.291 458.633C296.709 459.056 297.392 459.061 297.816 458.644L304.381 452.19C306.29 450.313 306.203 447.181 304.103 445.419Z" fill="url(#paint13_linear_30:305)"/>
<path d="M327.285 362.107C325.453 360.504 322.707 360.768 321 362.522L320.332 363.208L319.674 362.512C317.997 360.732 315.253 360.425 313.395 362C311.267 363.808 311.131 367.082 313.008 369.073L319.469 375.924C319.887 376.366 320.57 376.371 320.995 375.935L327.561 369.186C329.471 367.223 329.386 363.948 327.285 362.107Z" fill="url(#paint14_linear_30:305)"/>
<path d="M326.643 445.593C324.81 444.059 322.064 444.311 320.358 445.988L319.689 446.643L319.031 445.977C317.354 444.275 314.609 443.98 312.753 445.486C310.625 447.215 310.49 450.346 312.367 452.252L318.831 458.806C319.249 459.23 319.932 459.235 320.356 458.818L326.921 452.364C328.83 450.487 328.743 447.354 326.643 445.593Z" fill="url(#paint15_linear_30:305)"/>
<path d="M349.826 362.281C347.993 360.677 345.247 360.942 343.54 362.695L342.872 363.381L342.214 362.685C340.537 360.905 337.793 360.598 335.936 362.174C333.807 363.982 333.671 367.255 335.548 369.247L342.01 376.097C342.427 376.539 343.11 376.545 343.535 376.109L350.101 369.359C352.012 367.396 351.926 364.121 349.826 362.281Z" fill="url(#paint16_linear_30:305)"/>
<path d="M349.183 445.766C347.35 444.232 344.604 444.484 342.898 446.161L342.229 446.817L341.571 446.151C339.894 444.448 337.149 444.153 335.293 445.66C333.165 447.388 333.03 450.519 334.907 452.425L341.371 458.98C341.789 459.403 342.472 459.408 342.896 458.991L349.461 452.537C351.37 450.66 351.284 447.528 349.183 445.766Z" fill="url(#paint17_linear_30:305)"/>
<path d="M371.703 362.449C369.87 360.845 367.125 361.11 365.418 362.864L364.749 363.549L364.091 362.853C362.415 361.074 359.67 360.767 357.813 362.342C355.685 364.15 355.549 367.423 357.425 369.415L363.887 376.266C364.304 376.708 364.988 376.713 365.412 376.277L371.978 369.527C373.889 367.565 373.803 364.29 371.703 362.449Z" fill="url(#paint18_linear_30:305)"/>
<path d="M394.243 362.622C392.41 361.019 389.665 361.284 387.958 363.037L387.289 363.723L386.631 363.027C384.955 361.247 382.21 360.94 380.353 362.515C378.225 364.323 378.089 367.597 379.965 369.589L386.427 376.439C386.844 376.881 387.528 376.886 387.952 376.451L394.518 369.701C396.429 367.738 396.343 364.463 394.243 362.622Z" fill="url(#paint19_linear_30:305)"/>
<rect x="289.424" y="330.276" width="78.8928" height="3.97779" transform="rotate(0.441012 289.424 330.276)" fill="url(#paint20_linear_30:305)"/>
<rect width="78.8928" height="3.31482" transform="matrix(0.99997 0.00769704 0.00769704 -0.99997 288.618 435.021)" fill="url(#paint21_linear_30:305)"/>
<rect x="289.348" y="340.22" width="45.0816" height="3.97779" transform="rotate(0.441012 289.348 340.22)" fill="url(#paint22_linear_30:305)"/>
<rect width="45.0816" height="2.65186" transform="matrix(0.99997 0.00769704 0.00769704 -0.99997 288.7 424.414)" fill="url(#paint23_linear_30:305)"/>
<rect x="289.266" y="350.827" width="104.085" height="3.31482" transform="rotate(0.441012 289.266 350.827)" fill="url(#paint24_linear_30:305)"/>
<rect width="104.085" height="3.31482" transform="matrix(0.99997 0.00769704 0.00769704 -0.99997 288.771 415.133)" fill="url(#paint25_linear_30:305)"/>
<rect x="221.926" y="486.221" width="145.189" height="5.96668" transform="rotate(0.441012 221.926 486.221)" fill="url(#paint26_linear_30:305)"/>
<rect x="225.869" y="500.457" width="138.56" height="6.62965" transform="rotate(0.441012 225.869 500.457)" fill="url(#paint27_linear_30:305)"/>
<rect x="281.978" y="522.484" width="198.889" height="155.134" rx="20" transform="rotate(0.441012 281.978 522.484)" fill="#C4C4C4" fill-opacity="0.3"/>
<rect x="381.221" y="549.104" width="90.8262" height="43.7557" transform="rotate(0.441012 381.221 549.104)" fill="#E4C2C2"/>
<path d="M407.126 590.472V564.878H415.494C418.271 564.878 420.357 565.452 421.751 566.601C423.158 567.749 423.861 569.448 423.861 571.698C423.861 572.894 423.521 573.954 422.841 574.88C422.162 575.794 421.236 576.503 420.064 577.007C421.447 577.394 422.537 578.132 423.333 579.222C424.142 580.3 424.546 581.589 424.546 583.089C424.546 585.386 423.802 587.19 422.314 588.503C420.826 589.815 418.722 590.472 416.003 590.472H407.126ZM410.501 578.501V587.712H416.074C417.644 587.712 418.88 587.308 419.783 586.499C420.697 585.679 421.154 584.554 421.154 583.124C421.154 580.042 419.478 578.501 416.126 578.501H410.501ZM410.501 575.794H415.599C417.076 575.794 418.253 575.425 419.132 574.687C420.023 573.948 420.468 572.946 420.468 571.681C420.468 570.274 420.058 569.255 419.238 568.622C418.417 567.978 417.169 567.655 415.494 567.655H410.501V575.794ZM425.144 606.878V624.28C425.132 626.694 424.371 628.669 422.859 630.204C421.359 631.739 419.32 632.601 416.742 632.788L415.845 632.823C413.044 632.823 410.812 632.067 409.148 630.556C407.484 629.044 406.64 626.964 406.617 624.315V606.878H409.957V624.21C409.957 626.062 410.466 627.503 411.486 628.534C412.505 629.554 413.958 630.063 415.845 630.063C417.755 630.063 419.214 629.554 420.222 628.534C421.242 627.515 421.751 626.079 421.751 624.228V606.878H425.144ZM438.275 619.728L444.955 606.878H448.787L439.962 622.927V632.472H436.587V622.927L427.763 606.878H431.63L438.275 619.728Z" fill="white"/>
<rect x="297.042" y="546.467" width="66.9594" height="4.64075" transform="rotate(0.441012 297.042 546.467)" fill="white"/>
<rect x="296.935" y="560.389" width="66.9594" height="5.30372" transform="rotate(0.441012 296.935 560.389)" fill="white"/>
<rect x="298.817" y="574.326" width="66.9594" height="4.64075" transform="rotate(0.441012 298.817 574.326)" fill="white"/>
<rect x="295.293" y="601.481" width="176.349" height="72.9261" transform="rotate(0.441012 295.293 601.481)" fill="white"/>
<rect x="294.63" y="601.477" width="177.012" height="7.95558" transform="rotate(0.441012 294.63 601.477)" fill="#E4C2C2"/>
<g clip-path="url(#clip0_30:305)">
<path d="M261.59 602.871L265.527 586.203C265.811 584.999 264.901 583.844 263.66 583.835L232.015 583.591L231.304 579.988C231.127 579.09 230.34 578.44 229.422 578.433L221.161 578.369C220.093 578.361 219.221 579.217 219.213 580.281L219.203 581.566C219.195 582.63 220.054 583.499 221.122 583.507L226.752 583.551L232.199 611.165C230.839 611.93 229.916 613.378 229.903 615.046C229.884 617.529 231.888 619.557 234.38 619.576C236.872 619.595 238.907 617.598 238.926 615.115C238.936 613.857 238.425 612.716 237.595 611.894L254.486 612.024C253.644 612.833 253.116 613.966 253.106 615.224C253.087 617.707 255.091 619.736 257.583 619.755C260.075 619.774 262.11 617.777 262.129 615.294C262.143 613.514 261.116 611.968 259.616 611.228L260.076 609.282C260.36 608.079 259.449 606.924 258.208 606.914L236.583 606.748L236.075 604.175L259.693 604.357C260.596 604.364 261.383 603.747 261.59 602.871Z" fill="white"/>
<ellipse cx="263.102" cy="584.564" rx="5.80094" ry="5.87197" transform="rotate(0.441012 263.102 584.564)" fill="#8D1A65"/>
</g>
<path d="M585.573 659.883C579.645 616.012 593.933 562.121 629.741 522.043C645.353 551.785 660.866 630.537 585.573 659.883Z" fill="url(#paint28_linear_30:305)" fill-opacity="0.8"/>
<path d="M627.77 534.553C620.181 584.116 601.684 620.419 593.384 632.375V636.821C609.035 630.419 624.608 565.975 630.438 534.553H627.77Z" fill="white"/>
<path d="M584.273 660.364C604.134 601.967 665.495 571.139 684.467 571.139C688.913 603.153 613.62 682.3 584.273 660.364Z" fill="url(#paint29_linear_30:305)" fill-opacity="0.8"/>
<path d="M671.97 583.413C654.895 607.601 615.45 639.141 597.862 651.888V655.149C613.514 649.22 653.789 607.028 671.97 586.673V583.413Z" fill="white"/>
<g filter="url(#filter0_f_30:305)">
<ellipse cx="275.371" cy="741.789" rx="51.5" ry="6" fill="black" fill-opacity="0.4"/>
</g>
<g filter="url(#filter1_f_30:305)">
<ellipse cx="447.371" cy="741.789" rx="51.5" ry="6" fill="black" fill-opacity="0.4"/>
</g>
<path d="M409.148 608.584C399.103 607.149 397.638 613.816 398.161 617.329H389.865C387.174 617.329 386.501 619.87 386.501 621.141V644.908C386.501 648.137 388.744 649.094 389.865 649.168H416.996L416.099 617.329H401.524C400.807 613.024 403.169 611.947 404.439 611.947L417.22 612.172C418.715 611.574 419.193 610.019 409.148 608.584Z" fill="#856506"/>
<path d="M415.875 630.782H388.52V633.473H415.875V630.782Z" fill="#FFD56B"/>
<path d="M468.567 522.258C470.361 512.213 457.655 506.413 451.078 504.769L428.431 505.89C425.143 506.712 417.758 511.406 414.53 523.603C411.301 535.801 411.988 569.046 412.736 584.144C413.259 586.012 419.059 590.063 438.073 591.319C457.087 592.574 463.485 586.012 464.307 582.574C463.634 582.649 462.155 578.09 461.616 559.255C460.944 535.711 466.325 534.814 468.567 522.258Z" fill="#5159FC"/>
<path d="M414.754 600.512V586.386L429.104 572.484C433.439 550.062 439.284 505.217 427.983 505.217C413.857 505.217 408.924 530.106 409.597 533.245C410.135 535.756 409.372 558.807 408.924 570.018C408.924 574.682 405.187 591.394 403.318 599.167C407.623 600.781 412.736 600.736 414.754 600.512Z" fill="#5159FC"/>
<path d="M437.849 567.775L462.513 535.487L445.921 532.572C439.568 540.644 425.516 556.385 420.135 554.77C414.754 553.156 393.677 553.35 383.811 553.649C378.609 557.596 381.045 562.469 382.914 564.412C397.937 562.842 428.655 570.69 432.467 570.69C435.517 570.69 437.325 568.747 437.849 567.775Z" fill="#5159FC"/>
<path d="M374.394 555.219C375.649 554.86 379.999 555.069 382.017 555.219V562.394H378.43C378.504 562.842 377.981 564.143 375.291 565.757C371.927 567.775 370.133 568.224 366.097 567.999C362.869 567.82 359.819 564.636 358.698 563.066C357.577 557.685 367.667 553.201 369.461 555.219C371.255 557.237 372.824 555.667 374.394 555.219Z" fill="#F9C8AA"/>
<path d="M427.759 567.327L418.79 566.654L430.674 569.345C433.365 570.063 435.682 568.299 436.504 567.327L460.496 536.384H458.478C450.779 545.204 434.979 563.336 433.365 565.309C431.75 567.282 428.955 567.477 427.759 567.327Z" fill="#4149EB"/>
<path d="M404.888 603.427V599.839V598.942L412.511 599.839V603.427C412.661 603.427 413.184 603.786 414.081 605.221C415.202 607.014 414.754 611.947 413.857 613.517C412.96 615.086 406.457 614.19 404.439 613.965C402.421 613.741 402.421 609.481 402.421 607.463C402.421 605.445 404.888 604.324 404.888 603.427Z" fill="#F9C8AA"/>
<path d="M416.099 648.495C414.843 642.755 414.53 604.398 414.53 585.937L460.72 584.368C470.81 619.346 480.227 718.453 480.227 723.162C480.227 727.87 482.245 731.906 483.59 734.373C484.667 736.346 484.936 738.334 484.936 739.082H467.222C466.863 734.777 470.062 730.412 471.706 728.767C468.119 723.207 448.836 657.39 439.643 625.176C438.222 656.717 435.248 720.068 434.71 721.144C434.037 722.489 434.037 729.888 435.382 732.579C436.459 734.732 436.279 738.409 436.055 739.979H406.458V739.082C406.996 734.238 412.96 732.28 415.875 731.906C417.071 730.935 419.776 728.947 421.032 728.767C422.288 728.588 422.153 723.909 421.929 721.592C420.509 699.618 417.355 654.236 416.099 648.495Z" fill="#A4356C"/>
<path d="M433.14 619.347L434.709 707.915L439.194 624.28L433.14 609.032H430.225L428.207 606.342H426.189L430.225 610.378L433.14 619.347Z" fill="#571234"/>
<path d="M427.983 504.545C428.88 504.006 431.496 503.423 432.692 503.199C437.326 502.527 446.773 501.136 447.49 500.957C448.208 500.778 451.227 503.573 452.647 504.993C450.854 509.119 443.679 514.934 440.315 517.325C439.418 514.635 437.131 509.298 435.158 509.477C433.185 509.657 430.599 513.439 429.552 515.307C429.732 514.052 428.581 507.609 427.983 504.545Z" fill="white"/>
<path d="M432.691 505.442L432.916 496.473L446.817 489.97L447.266 501.181C445.293 503.693 438.671 507.011 435.606 508.357C434.351 508.177 433.14 506.339 432.691 505.442Z" fill="#F9C8AA"/>
<path d="M433.14 497.369C434.71 497.369 444.875 492.81 447.939 490.418L451.527 481.674L452.872 475.62L445.472 467.772L434.037 464.857L423.723 474.723C423.05 497.818 431.571 497.369 433.14 497.369Z" fill="#F9C8AA"/>
<path d="M425.965 460.821C415.382 460.283 418.865 466.576 421.929 469.79C419.059 476.427 424.396 477.189 426.862 475.844C429.328 474.499 433.275 469.79 439.194 469.79C445.114 469.79 446.444 478.759 446.369 483.243C446.818 476.292 449.733 477.638 450.181 478.759C450.63 479.88 451.078 483.468 449.06 484.813C447.446 485.889 447.042 490.045 447.042 491.988C448.686 492.287 451.885 492.526 451.526 491.091C451.078 489.297 451.526 483.692 453.545 478.31C455.563 472.929 456.459 463.063 449.733 463.287C443.006 463.512 439.194 461.494 425.965 460.821Z" fill="url(#paint30_linear_30:305)"/>
<path d="M434.485 489.073C432.333 489.611 428.655 489.297 427.086 489.073C427.759 492.212 429.777 493.109 431.122 493.109C432.467 493.109 434.112 490.493 434.485 489.073Z" fill="white"/>
<path d="M391.21 647.599C388.878 647.599 388.146 644.759 388.071 643.339H389.865C389.865 644.595 390.762 645.506 391.21 645.805H410.718V647.599H391.21Z" fill="#FFD56B"/>
<path d="M246.742 618.731C236.877 618.731 236.503 624.711 237.549 627.7H230.374C226.428 627.521 225.74 630.316 225.89 631.736V653.934C225.89 657.881 228.281 658.718 229.477 658.643H265.353C268.582 658.643 269.538 655.952 269.613 654.607L269.165 630.839C269.344 627.79 266.698 627.177 265.353 627.252H257.057C257.729 624.412 256.608 618.731 246.742 618.731Z" fill="#522C00"/>
<path d="M246.742 620.974C241.361 620.974 240.763 625.159 241.137 627.252H253.917C254.366 624.785 253.469 620.974 246.742 620.974Z" fill="white"/>
<path d="M261.747 632.095H228.562V633.889H261.074L261.747 632.095Z" fill="#FFB661"/>
<path d="M244.052 644.293V638.912H250.33V644.293H244.052Z" fill="#FFAE0F"/>
<path d="M242.033 616.265C243.289 615.188 243.304 612.079 243.155 610.659H250.554C249.881 612.453 253.693 616.265 254.59 618.283C255.487 620.301 253.693 620.077 253.693 619.18C253.693 618.462 252.946 617.834 252.572 617.61C252.796 618.731 253.11 621.332 252.572 622.767C251.899 624.561 243.155 623.888 242.033 622.767C240.912 621.646 240.464 617.61 242.033 616.265Z" fill="#F4A16F"/>
<path d="M246.294 640.033V644.069H250.33V640.033H246.294Z" fill="#FFCE6E"/>
<path d="M366.235 553.903C364.082 555.338 360.256 555.398 358.611 555.249V563.993H360.854C361.212 563.097 363.395 559.883 364.441 558.388C367.356 554.128 370.944 556.37 371.392 556.818C371.84 557.267 374.083 558.836 374.98 557.491C375.877 556.146 375.652 555.249 373.634 553.903C371.616 552.558 368.926 552.11 366.235 553.903Z" fill="#F4A16F"/>
<path d="M246.518 729.498C250.644 682.321 260.644 621.796 265.129 597.43L269.613 587.564L311.095 584.649C314.323 601.332 307.059 688.016 303.023 729.273C305.265 732.188 312.664 732.861 316.7 734.879C319.929 736.493 320.437 739.737 320.288 741.157H290.69C289.569 735.103 291.139 736 292.26 731.067C293.157 727.121 289.195 659.764 287.103 626.579C286.206 629.629 268.044 691.081 259.075 721.426C257.655 724.565 255.263 731.426 257.057 733.758C258.851 736.09 259.15 740.111 259.075 741.83L241.585 741.381V737.121C244.097 735.865 245.92 731.516 246.518 729.498Z" fill="#242B73"/>
<path d="M292.035 613.574L287.103 626.579C287.999 627.476 290.914 690.483 292.26 721.874L293.829 615.816L297.193 612.901L296.52 610.211L293.381 613.574V606.399H292.708L292.035 613.574Z" fill="#0D1030"/>
<path d="M316.476 523.661C312.35 511.463 303.546 507.517 299.659 507.068L318.494 565.591H358.63V553.931L324.772 550.568L316.476 523.661Z" fill="#8E46E5"/>
<path d="M312.789 586.578C304.677 595.165 282.079 593.436 271.795 591.498L275.894 565.112L270.716 507.199L275.247 505.633L296.391 506.081L303.08 509.435L316.457 536.491L312.789 586.578Z" fill="#FCCDE1"/>
<path d="M273.425 505.499C274.86 505.858 278.059 503.854 279.479 502.808C284.501 504.961 289.195 509.236 290.914 511.104C291.004 510.566 292.895 508.488 293.829 507.517V505.05C295.085 504.512 297.491 505.723 298.538 506.396C299.076 509.266 297.417 514.916 296.52 517.383C296.161 515.23 292.633 512.749 290.914 511.777C289.838 511.598 286.878 516.934 285.533 519.625C285.353 517.114 277.386 509.161 273.425 505.499Z" fill="white"/>
<path d="M253.245 524.109C256.833 511.015 267.894 506.695 272.977 506.171C284.188 531.284 283.515 578.147 278.806 594.515C274.098 610.884 253.753 609.217 255.263 604.516C257.711 596.892 258.103 590.704 259.075 585.995C260.794 575.83 263.425 555.904 260.196 557.518C256.967 559.133 255.562 569.402 255.263 574.335L253.469 610.659H241.81C241.81 595.562 242.213 564.335 243.828 560.209C245.442 556.083 250.778 534.424 253.245 524.109Z" fill="#8E46E5"/>
<path d="M281.945 566.936C279.614 537.697 268.567 516.635 263.335 509.759C265.129 507.965 270.51 506.47 272.977 505.947C279.793 519.939 281.796 552.436 281.945 566.936Z" fill="#802EAB"/>
<path d="M312.216 547.204C313.113 529.087 304.069 512.898 299.435 507.068C312.664 521.419 316.7 532.63 319.167 549.895C321.14 563.707 319.241 591.675 318.046 603.933C310.87 599.224 311.319 597.879 312.216 582.407C312.933 570.03 312.515 553.782 312.216 547.204Z" fill="#8E46E5"/>
<path d="M316.028 530.836C314.772 532.809 313.113 550.044 312.44 558.415C314.234 528.997 304.667 511.927 299.659 507.068C301.901 507.517 312.44 510.432 310.198 513.347C308.404 515.679 309.45 520.447 310.198 522.54C312.664 524.483 317.283 528.863 316.028 530.836Z" fill="#802EAB"/>
<path d="M279.255 503.032V492.942L293.829 498.996V507.517C293.471 507.338 291.737 509.834 290.914 511.104C288.941 508.234 282.319 504.527 279.255 503.032Z" fill="#F4A16F"/>
<path d="M295.623 499.893C288.628 501.866 281.497 496.231 278.807 493.166C277.984 490.625 276.161 484.915 275.443 482.404C274.546 479.265 276.116 476.574 279.928 471.193C283.739 465.811 302.35 470.968 303.247 474.78C304.144 478.592 304.368 497.427 295.623 499.893Z" fill="#F4A16F"/>
<path d="M290.69 472.986C281.901 469.219 280.75 478.144 281.273 483.076C279.927 480.386 277.013 478.144 276.34 482.18C275.802 485.408 278.059 487.86 279.255 488.682V493.391C280.152 494.96 275.219 496.081 275.667 492.718C276.026 490.027 273.873 481.283 272.752 477.247C268.044 464.466 281.273 463.121 293.157 464.242C305.041 465.363 305.489 471.417 305.713 472.986C305.937 474.556 301.677 477.695 290.69 472.986Z" fill="url(#paint31_linear_30:305)"/>
<path d="M300.332 490.924C296.565 491.283 292.932 490.775 291.587 490.476C291.961 492.344 294.278 495.184 296.744 495.184C299.21 495.184 300.481 492.045 300.332 490.924Z" fill="white"/>
<defs>
<filter id="filter0_f_30:305" x="211.871" y="723.789" width="127" height="36" filterUnits="userSpaceOnUse" color-interpolation-filters="sRGB">
<feFlood flood-opacity="0" result="BackgroundImageFix"/>
<feBlend mode="normal" in="SourceGraphic" in2="BackgroundImageFix" result="shape"/>
<feGaussianBlur stdDeviation="6" result="effect1_foregroundBlur_30:305"/>
</filter>
<filter id="filter1_f_30:305" x="383.871" y="723.789" width="127" height="36" filterUnits="userSpaceOnUse" color-interpolation-filters="sRGB">
<feFlood flood-opacity="0" result="BackgroundImageFix"/>
<feBlend mode="normal" in="SourceGraphic" in2="BackgroundImageFix" result="shape"/>
<feGaussianBlur stdDeviation="6" result="effect1_foregroundBlur_30:305"/>
</filter>
<linearGradient id="paint0_linear_30:305" x1="740.545" y1="433.059" x2="740.545" y2="675.443" gradientUnits="userSpaceOnUse">
<stop stop-color="#60DE33"/>
<stop offset="1" stop-color="#0C5A56"/>
</linearGradient>
<linearGradient id="paint1_linear_30:305" x1="132.99" y1="546.591" x2="132.99" y2="694.927" gradientUnits="userSpaceOnUse">
<stop stop-color="#60DE33"/>
<stop offset="1" stop-color="#110A5F"/>
</linearGradient>
<linearGradient id="paint2_linear_30:305" x1="162.529" y1="272.185" x2="162.529" y2="571.577" gradientUnits="userSpaceOnUse">
<stop stop-color="#60DE33"/>
<stop offset="1" stop-color="#0C5A56"/>
</linearGradient>
<linearGradient id="paint3_linear_30:305" x1="448.166" y1="355.471" x2="448.166" y2="723.246" gradientUnits="userSpaceOnUse">
<stop stop-color="#19144A"/>
<stop offset="1" stop-color="#2A327E"/>
</linearGradient>
<linearGradient id="paint4_linear_30:305" x1="445.975" y1="366.868" x2="445.975" y2="700.013" gradientUnits="userSpaceOnUse">
<stop stop-color="#E78057"/>
<stop offset="1" stop-color="#F7D349"/>
</linearGradient>
<linearGradient id="paint5_linear_30:305" x1="442.029" y1="397.114" x2="442.029" y2="685.548" gradientUnits="userSpaceOnUse">
<stop stop-color="#F0B394"/>
<stop offset="1" stop-color="#FCE58C"/>
</linearGradient>
<linearGradient id="paint6_linear_30:305" x1="621.395" y1="413.088" x2="542.503" y2="727.002" gradientUnits="userSpaceOnUse">
<stop stop-color="#4DB4FC"/>
<stop offset="0.962174" stop-color="#4385FB"/>
</linearGradient>
<linearGradient id="paint7_linear_30:305" x1="584.269" y1="702.472" x2="639.627" y2="402.812" gradientUnits="userSpaceOnUse">
<stop stop-color="#3841F4"/>
<stop offset="1" stop-color="#4487FA"/>
</linearGradient>
<linearGradient id="paint8_linear_30:305" x1="741.475" y1="442.031" x2="701.946" y2="532.09" gradientUnits="userSpaceOnUse">
<stop stop-color="#4683FF"/>
<stop offset="1" stop-color="#3946F5"/>
</linearGradient>
<linearGradient id="paint9_linear_30:305" x1="348.462" y1="271.545" x2="348.462" y2="724.645" gradientUnits="userSpaceOnUse">
<stop stop-color="#AEEDFF"/>
<stop offset="1" stop-color="#7DAEFB"/>
</linearGradient>
<linearGradient id="paint10_linear_30:305" x1="247.429" y1="359.787" x2="247.291" y2="377.686" gradientUnits="userSpaceOnUse">
<stop stop-color="#FEE5E5"/>
<stop offset="1" stop-color="#CFBDBD"/>
</linearGradient>
<linearGradient id="paint11_linear_30:305" x1="247.346" y1="439.425" x2="247.208" y2="457.325" gradientUnits="userSpaceOnUse">
<stop stop-color="#FEE5E5"/>
<stop offset="1" stop-color="#CFBDBD"/>
</linearGradient>
<linearGradient id="paint12_linear_30:305" x1="297.808" y1="360.838" x2="297.691" y2="376.086" gradientUnits="userSpaceOnUse">
<stop stop-color="white"/>
<stop offset="1" stop-color="white"/>
</linearGradient>
<linearGradient id="paint13_linear_30:305" x1="297.165" y1="444.369" x2="297.053" y2="458.953" gradientUnits="userSpaceOnUse">
<stop stop-color="white"/>
<stop offset="1" stop-color="white"/>
</linearGradient>
<linearGradient id="paint14_linear_30:305" x1="320.348" y1="361.011" x2="320.231" y2="376.259" gradientUnits="userSpaceOnUse">
<stop stop-color="white"/>
<stop offset="1" stop-color="white"/>
</linearGradient>
<linearGradient id="paint15_linear_30:305" x1="319.705" y1="444.542" x2="319.593" y2="459.127" gradientUnits="userSpaceOnUse">
<stop stop-color="white"/>
<stop offset="1" stop-color="white"/>
</linearGradient>
<linearGradient id="paint16_linear_30:305" x1="342.888" y1="361.185" x2="342.771" y2="376.432" gradientUnits="userSpaceOnUse">
<stop stop-color="white"/>
<stop offset="1" stop-color="white"/>
</linearGradient>
<linearGradient id="paint17_linear_30:305" x1="342.245" y1="444.716" x2="342.133" y2="459.301" gradientUnits="userSpaceOnUse">
<stop stop-color="white"/>
<stop offset="1" stop-color="white"/>
</linearGradient>
<linearGradient id="paint18_linear_30:305" x1="364.766" y1="361.353" x2="364.648" y2="376.601" gradientUnits="userSpaceOnUse">
<stop stop-color="white"/>
<stop offset="1" stop-color="white"/>
</linearGradient>
<linearGradient id="paint19_linear_30:305" x1="387.306" y1="361.526" x2="387.188" y2="376.774" gradientUnits="userSpaceOnUse">
<stop stop-color="white"/>
<stop offset="1" stop-color="white"/>
</linearGradient>
<linearGradient id="paint20_linear_30:305" x1="328.871" y1="330.276" x2="328.871" y2="334.254" gradientUnits="userSpaceOnUse">
<stop stop-color="white"/>
<stop offset="1" stop-color="white"/>
</linearGradient>
<linearGradient id="paint21_linear_30:305" x1="39.4464" y1="0" x2="39.4464" y2="3.31482" gradientUnits="userSpaceOnUse">
<stop stop-color="white"/>
<stop offset="1" stop-color="white"/>
</linearGradient>
<linearGradient id="paint22_linear_30:305" x1="311.888" y1="340.22" x2="311.888" y2="344.198" gradientUnits="userSpaceOnUse">
<stop stop-color="white"/>
<stop offset="1" stop-color="white"/>
</linearGradient>
<linearGradient id="paint23_linear_30:305" x1="22.5408" y1="0" x2="22.5408" y2="2.65186" gradientUnits="userSpaceOnUse">
<stop stop-color="white"/>
<stop offset="1" stop-color="white"/>
</linearGradient>
<linearGradient id="paint24_linear_30:305" x1="341.309" y1="350.827" x2="341.309" y2="354.142" gradientUnits="userSpaceOnUse">
<stop stop-color="white"/>
<stop offset="1" stop-color="white"/>
</linearGradient>
<linearGradient id="paint25_linear_30:305" x1="52.0427" y1="0" x2="52.0427" y2="3.31482" gradientUnits="userSpaceOnUse">
<stop stop-color="white"/>
<stop offset="1" stop-color="white"/>
</linearGradient>
<linearGradient id="paint26_linear_30:305" x1="294.52" y1="486.221" x2="294.52" y2="492.187" gradientUnits="userSpaceOnUse">
<stop stop-color="white"/>
<stop offset="1" stop-color="white"/>
</linearGradient>
<linearGradient id="paint27_linear_30:305" x1="295.149" y1="500.457" x2="295.149" y2="507.087" gradientUnits="userSpaceOnUse">
<stop stop-color="white"/>
<stop offset="1" stop-color="white"/>
</linearGradient>
<linearGradient id="paint28_linear_30:305" x1="613.459" y1="522.043" x2="613.459" y2="659.883" gradientUnits="userSpaceOnUse">
<stop stop-color="#60DE33"/>
<stop offset="1" stop-color="#0C5A56"/>
</linearGradient>
<linearGradient id="paint29_linear_30:305" x1="634.464" y1="571.139" x2="634.464" y2="664.151" gradientUnits="userSpaceOnUse">
<stop stop-color="#60DE33"/>
<stop offset="1" stop-color="#0C5A56"/>
</linearGradient>
<linearGradient id="paint30_linear_30:305" x1="418.703" y1="460.789" x2="451.888" y2="492.18" gradientUnits="userSpaceOnUse">
<stop stop-color="#360C65"/>
<stop offset="1" stop-color="#5638AF"/>
</linearGradient>
<linearGradient id="paint31_linear_30:305" x1="302.555" y1="466.843" x2="275.424" y2="491.283" gradientUnits="userSpaceOnUse">
<stop stop-color="#131754"/>
<stop offset="1" stop-color="#1823C0"/>
</linearGradient>
<clipPath id="clip0_30:305">
<rect width="46.4075" height="41.1038" fill="white" transform="translate(219.228 578.354) rotate(0.441012)"/>
</clipPath>
</defs>
</svg>
