<svg width="273" height="266" viewBox="0 0 273 266" fill="none" xmlns="http://www.w3.org/2000/svg">
<path d="M260.282 217.845L253 248.041H237H222.511L215.31 217.845H260.282Z" fill="#D3D3D3"/>
<path d="M261.834 216.434C261.834 216.434 261.623 219.115 260.281 220.879C259.293 224.548 216.086 224.83 215.31 220.526C215.027 218.974 213.756 216.434 213.756 216.434H261.834Z" fill="#939598"/>
<path d="M237.76 218.692C224.309 218.692 213.404 217.524 213.404 216.082C213.404 214.64 224.309 213.472 237.76 213.472C251.212 213.472 262.117 214.64 262.117 216.082C262.117 217.524 251.212 218.692 237.76 218.692Z" fill="#3C2415"/>
<g filter="url(#filter0_d_253_99)">
<path d="M223.711 208.675C227.594 210.156 228.511 212.484 228.37 215.165H227.594C227.523 212.555 226.111 210.438 223.216 208.886L223.711 208.675Z" fill="#39B54A"/>
<path d="M225.053 208.957C225.194 207.899 224.488 206.911 223.782 206.064C221.805 203.666 219.334 201.62 216.44 199.997C216.087 201.761 216.934 203.525 217.781 205.147C218.275 206.135 218.769 207.193 219.758 207.899C220.252 208.322 220.887 208.604 221.523 208.816C222.652 209.239 222.723 209.945 223.994 210.086C224.135 209.803 225.053 209.169 224.982 208.816L225.053 208.957Z" fill="url(#paint0_linear_253_99)"/>
<path d="M253.433 209.098C253.009 211.637 249.055 213.331 244.396 214.883H243.549C249.126 212.696 253.08 210.509 252.938 208.322L253.433 209.098Z" fill="url(#paint1_linear_253_99)"/>
<path d="M256.469 209.874C258.799 209.733 260.493 207.616 262.329 206.417C262.964 205.994 263.67 205.571 264.094 204.936C264.517 204.442 264.729 203.807 264.941 203.242C265.294 202.255 265.647 201.267 266 200.209C264.164 200.138 262.47 200.844 260.846 201.549C259.081 202.325 257.316 203.031 255.693 203.948C254.634 204.512 253.504 205.147 252.939 206.064C252.304 207.052 252.304 208.251 252.374 209.31C253.786 209.662 254.916 210.086 256.469 209.874Z" fill="url(#paint2_linear_253_99)"/>
<path d="M223.712 198.657C230.348 202.749 231.125 208.675 230.56 215.024H229.854C230.348 208.675 228.795 203.031 223.147 198.939L223.712 198.657Z" fill="url(#paint3_linear_253_99)"/>
<path d="M224.7 197.034C224.418 196.54 224.277 195.129 224.206 194.847C223.853 190.261 222.512 188.427 218.841 185.111C218.7 187.439 217.429 189.767 217.711 192.095C217.923 193.93 218.982 195.552 220.112 197.105C220.818 198.092 221.524 199.009 222.583 199.715C222.935 199.997 223.43 200.209 223.853 200.138C224.559 200.068 225.053 199.433 225.124 198.868C225.265 198.233 224.983 197.598 224.7 197.034Z" fill="url(#paint4_linear_253_99)"/>
<path d="M225.759 181.794C231.336 192.447 230.136 203.382 237.196 214.882H236.066C228.653 203.524 230.065 193.012 224.912 182.359L225.759 181.794Z" fill="url(#paint5_linear_253_99)"/>
<path d="M223.428 182.641C219.192 176.574 217.427 168.813 218.486 161.406C219.687 161.617 220.675 162.605 221.522 163.451C222.157 164.086 222.722 164.651 223.358 165.286C224.275 166.203 225.264 167.191 225.829 168.319C226.464 169.589 226.676 170.93 226.958 172.341C227.452 175.304 227.805 178.337 227.382 181.301C227.311 181.794 227.17 182.359 226.817 182.782C226.111 183.77 224.487 183.488 223.428 182.641Z" fill="url(#paint6_linear_253_99)"/>
<path d="M241.431 166.556C253.433 182.5 250.538 198.515 235.43 214.53H233.877C249.338 198.162 251.315 182.077 240.513 166.203L241.431 166.556Z" fill="url(#paint7_linear_253_99)"/>
<path d="M237.619 167.544C231.689 161.477 229.147 153.716 230.701 146.308C232.395 146.52 233.736 147.508 235.007 148.354C235.854 148.989 236.701 149.554 237.549 150.189C238.89 151.106 240.161 152.093 241.079 153.222C241.996 154.492 242.349 155.833 242.632 157.244C243.267 160.207 243.832 163.24 243.197 166.203C243.055 166.697 242.914 167.262 242.42 167.685C241.432 168.673 239.172 168.39 237.619 167.544Z" fill="url(#paint8_linear_253_99)"/>
<path d="M240.09 197.457C237.266 202.819 237.689 208.604 240.372 214.601H239.666C236.56 208.675 236.207 202.96 239.384 197.457H240.09Z" fill="url(#paint9_linear_253_99)"/>
<path d="M238.395 194.847C238.395 193.718 238.96 193.154 238.96 192.095C238.96 191.037 238.96 189.908 239.525 188.921C239.807 188.356 240.301 187.933 240.796 187.439C241.855 186.522 243.055 185.746 244.467 185.181C244.749 187.439 244.89 189.767 244.961 192.095C244.961 192.871 244.961 193.718 244.679 194.423C244.255 195.482 243.267 196.399 242.278 197.245C241.784 197.598 241.29 198.021 240.654 198.233C240.019 198.445 239.101 198.374 238.678 197.951C238.183 197.528 238.395 196.893 238.536 196.399C238.748 195.764 238.183 195.482 238.395 194.847Z" fill="url(#paint10_linear_253_99)"/>
<path d="M256.893 187.157L255.551 186.733C257.457 196.117 244.185 204.935 240.725 214.742L241.643 214.812C246.726 203.877 258.234 195.764 256.893 187.157Z" fill="url(#paint11_linear_253_99)"/>
<path d="M257.316 188.145C257.952 188.215 258.587 187.933 259.011 187.58C268.401 178.197 264.094 180.455 264.165 176.363C264.165 175.093 264.165 173.823 264.235 172.553C264.376 171.072 262.258 170.225 260.917 171.213C260.776 171.283 260.635 171.424 260.493 171.495C258.87 172.694 257.246 173.964 256.328 175.587C255.905 176.363 255.693 177.209 255.481 177.985C254.704 180.737 253.928 183.559 254.14 186.381C254.21 187.086 254.775 187.651 255.622 187.862C256.187 188.004 256.752 188.145 257.316 188.145Z" fill="url(#paint12_linear_253_99)"/>
</g>
<path d="M103.045 99.8279C114.764 42.1887 161.148 40.7072 201.319 0C184.799 34.9927 197.859 70.6908 170.043 99.8279H103.045Z" fill="url(#paint13_linear_253_99)"/>
<path d="M184.234 122.192C238.948 100.463 232.241 54.6058 265.211 7.97241C233.653 30.4072 207.39 17.4966 183.598 50.0201L184.234 122.192Z" fill="url(#paint14_linear_253_99)"/>
<g filter="url(#filter1_d_253_99)">
<path d="M202.887 56.4267V216.035C202.887 233.777 189.24 248.151 172.395 248.151H58.3867C41.3282 248.151 27.6103 233.403 27.8946 215.511L30.5245 55.9026C30.8088 38.3847 44.3845 24.3853 61.0166 24.3853H172.395C189.24 24.3104 202.887 38.6841 202.887 56.4267Z" fill="url(#paint15_linear_253_99)"/>
<path d="M29.0882 140.381H202.338V172.34H29.0882V140.381Z" fill="white"/>
<path d="M108 45H49V50H108V45Z" fill="#F3E991"/>
<path d="M185 59H49V66H185V59Z" fill="#F3E991"/>
<path d="M185 103H49V110H185V103Z" fill="#F3E991"/>
<path d="M151 75H49V80H151V75Z" fill="#F3E991"/>
<path d="M151 119H49V124H151V119Z" fill="#F3E991"/>
<path d="M193 88H49V94H193V88Z" fill="#F3E991"/>
</g>
<g filter="url(#filter2_d_253_99)">
<path d="M119.313 141.542L123.196 143.373C123.196 143.373 105.899 218.78 113.383 247.084H81.4717C81.4717 247.084 79.9185 173.578 93.6148 146.612L119.313 141.542Z" fill="white"/>
<path d="M118.889 123.73C118.889 123.73 121.148 104.649 120.795 102.466C120.442 100.354 122.842 100.495 118.889 93.2428C114.935 85.9907 95.5912 88.103 92.979 89.1591C90.2963 90.2152 84.7189 92.3275 84.7895 101.34C84.8601 110.352 86.0603 111.267 86.0603 111.267C86.0603 111.267 102.581 108.521 103.781 105.846C104.981 103.241 118.889 123.73 118.889 123.73Z" fill="black"/>
<path d="M118.184 128.869L118.96 141.824L106.394 156.54L97.8513 154.216C97.8513 154.216 101.311 140.276 99.8281 139.923C98.2043 139.571 118.184 128.869 118.184 128.869Z" fill="#EDA97A"/>
<path d="M112.677 113.521L114.089 110.845C114.089 110.845 119.878 105.917 119.948 116.337C119.948 116.9 119.948 117.464 119.948 118.097C119.383 130.841 115.148 133.657 115.148 133.657C115.148 133.657 109.147 138.938 100.745 139.853C92.344 140.769 88.6729 123.378 88.6729 123.378C88.6729 123.378 85.2841 108.31 85.8489 107.254C86.4137 106.198 104.487 106.198 107.876 103.875C111.265 101.551 111.053 112.887 111.053 112.887L112.677 113.521Z" fill="#EDA97A"/>
<path d="M93.7568 146.683C93.7568 146.683 79.3546 199.559 81.755 247.226L31.7002 247.859C31.7002 247.859 52.7388 170.692 65.729 160.905C78.7192 151.048 93.7568 146.683 93.7568 146.683Z" fill="#282869"/>
<path d="M122.843 143.233C122.843 143.233 149.318 152.597 151.718 155.202C154.119 157.807 167.532 215.471 167.674 216.457C167.815 217.443 166.685 224.906 101.028 237.791L92.2738 223.498C92.2738 223.498 136.751 213.007 144.588 207.938C144.588 207.938 146.211 194.56 140.14 188.998C140.14 188.998 132.162 216.176 137.245 248H114.936C109.218 226.737 103.781 178.437 122.843 143.233Z" fill="#282869"/>
<path d="M69.682 191.955C73.0707 174.001 72.6471 178.507 72.6471 178.507L63.6811 191.955H69.682Z" fill="url(#paint16_linear_253_99)"/>
<path d="M108.37 150.907H101.027L95.3088 152.386L95.803 160.13H109.993L112.464 152.386L108.37 150.907Z" fill="white"/>
<path d="M92.9097 225.047C92.9097 225.047 88.8856 226.807 86.9794 226.737C85.0732 226.666 81.8963 223.709 79.0017 224.625C76.1071 225.54 85.4968 239.762 85.4968 239.762C85.4968 239.762 97.7105 238.847 101.805 234.904C105.9 230.961 92.9097 225.047 92.9097 225.047Z" fill="#EDA97A"/>
<path d="M106.676 150.766C106.676 150.766 105.547 150.273 104.488 150.344C103.429 150.414 104.064 154.498 104.064 154.498H104.911C104.911 154.498 106.323 153.16 106.676 150.766Z" fill="#E5414D"/>
<path d="M104.911 154.498C104.911 154.498 106.464 193.856 102.793 207.163L98.4865 211.247L95.0978 206.248C95.0978 206.248 98.9101 159.708 103.993 154.498H104.911Z" fill="#E5414D"/>
<path d="M118.396 140.275C118.396 140.275 106.676 149.287 106.676 150.696L110.206 156.539L120.514 140.979L118.396 140.275Z" fill="white"/>
<path d="M104.558 150.344L99.5456 144.007L97.4276 145.556L98.4866 155.835L104.558 150.344Z" fill="white"/>
</g>
<path d="M74.9059 192.318L92.5 247L16.591 247.135L0.000183105 192.318H72.0113H74.9059Z" fill="#E5414D"/>
<path d="M106.675 246.5V248H92H16.5908V246.981L92 246.5H106.675Z" fill="#423F3F"/>
<path d="M92 246.5L16.5908 246.981L-2.28882e-05 192.164L92 246.5Z" fill="#C94457"/>
<defs>
<filter id="filter0_d_253_99" x="203.357" y="143.308" width="69.6426" height="88.8569" filterUnits="userSpaceOnUse" color-interpolation-filters="sRGB">
<feFlood flood-opacity="0" result="BackgroundImageFix"/>
<feColorMatrix in="SourceAlpha" type="matrix" values="0 0 0 0 0 0 0 0 0 0 0 0 0 0 0 0 0 0 127 0" result="hardAlpha"/>
<feOffset dx="-3" dy="7"/>
<feGaussianBlur stdDeviation="5"/>
<feColorMatrix type="matrix" values="0 0 0 0 0 0 0 0 0 0 0 0 0 0 0 0 0 0 0.25 0"/>
<feBlend mode="normal" in2="BackgroundImageFix" result="effect1_dropShadow_253_99"/>
<feBlend mode="normal" in="SourceGraphic" in2="effect1_dropShadow_253_99" result="shape"/>
</filter>
<filter id="filter1_d_253_99" x="14.8901" y="21.385" width="194.997" height="243.766" filterUnits="userSpaceOnUse" color-interpolation-filters="sRGB">
<feFlood flood-opacity="0" result="BackgroundImageFix"/>
<feColorMatrix in="SourceAlpha" type="matrix" values="0 0 0 0 0 0 0 0 0 0 0 0 0 0 0 0 0 0 127 0" result="hardAlpha"/>
<feOffset dx="-3" dy="7"/>
<feGaussianBlur stdDeviation="5"/>
<feColorMatrix type="matrix" values="0 0 0 0 0 0 0 0 0 0 0 0 0 0 0 0 0 0 0.25 0"/>
<feBlend mode="normal" in2="BackgroundImageFix" result="effect1_dropShadow_253_99"/>
<feBlend mode="normal" in="SourceGraphic" in2="effect1_dropShadow_253_99" result="shape"/>
</filter>
<filter id="filter2_d_253_99" x="18.7002" y="85.0391" width="155.981" height="179.961" filterUnits="userSpaceOnUse" color-interpolation-filters="sRGB">
<feFlood flood-opacity="0" result="BackgroundImageFix"/>
<feColorMatrix in="SourceAlpha" type="matrix" values="0 0 0 0 0 0 0 0 0 0 0 0 0 0 0 0 0 0 127 0" result="hardAlpha"/>
<feOffset dx="-3" dy="7"/>
<feGaussianBlur stdDeviation="5"/>
<feColorMatrix type="matrix" values="0 0 0 0 0 0 0 0 0 0 0 0 0 0 0 0 0 0 0.25 0"/>
<feBlend mode="normal" in2="BackgroundImageFix" result="effect1_dropShadow_253_99"/>
<feBlend mode="normal" in="SourceGraphic" in2="effect1_dropShadow_253_99" result="shape"/>
</filter>
<linearGradient id="paint0_linear_253_99" x1="232.94" y1="142.952" x2="218.932" y2="213.705" gradientUnits="userSpaceOnUse">
<stop stop-color="#39B54A"/>
<stop offset="1" stop-color="#006838"/>
</linearGradient>
<linearGradient id="paint1_linear_253_99" x1="262.212" y1="142.665" x2="247.13" y2="218.84" gradientUnits="userSpaceOnUse">
<stop stop-color="#39B54A"/>
<stop offset="1" stop-color="#006838"/>
</linearGradient>
<linearGradient id="paint2_linear_253_99" x1="270.946" y1="144.6" x2="255.932" y2="220.431" gradientUnits="userSpaceOnUse">
<stop stop-color="#39B54A"/>
<stop offset="1" stop-color="#006838"/>
</linearGradient>
<linearGradient id="paint3_linear_253_99" x1="239.543" y1="142.955" x2="225.303" y2="214.878" gradientUnits="userSpaceOnUse">
<stop stop-color="#39B54A"/>
<stop offset="1" stop-color="#006838"/>
</linearGradient>
<linearGradient id="paint4_linear_253_99" x1="232.045" y1="141.326" x2="217.765" y2="213.456" gradientUnits="userSpaceOnUse">
<stop stop-color="#39B54A"/>
<stop offset="1" stop-color="#006838"/>
</linearGradient>
<linearGradient id="paint5_linear_253_99" x1="242.035" y1="142.992" x2="227.754" y2="215.122" gradientUnits="userSpaceOnUse">
<stop stop-color="#39B54A"/>
<stop offset="1" stop-color="#006838"/>
</linearGradient>
<linearGradient id="paint6_linear_253_99" x1="229.095" y1="140.453" x2="214.806" y2="212.624" gradientUnits="userSpaceOnUse">
<stop stop-color="#39B54A"/>
<stop offset="1" stop-color="#006838"/>
</linearGradient>
<linearGradient id="paint7_linear_253_99" x1="251.456" y1="143.667" x2="236.926" y2="217.054" gradientUnits="userSpaceOnUse">
<stop stop-color="#39B54A"/>
<stop offset="1" stop-color="#006838"/>
</linearGradient>
<linearGradient id="paint8_linear_253_99" x1="239.806" y1="141.938" x2="225.576" y2="213.812" gradientUnits="userSpaceOnUse">
<stop stop-color="#39B54A"/>
<stop offset="1" stop-color="#006838"/>
</linearGradient>
<linearGradient id="paint9_linear_253_99" x1="251.741" y1="143.807" x2="237.27" y2="216.899" gradientUnits="userSpaceOnUse">
<stop stop-color="#39B54A"/>
<stop offset="1" stop-color="#006838"/>
</linearGradient>
<linearGradient id="paint10_linear_253_99" x1="251.616" y1="143.09" x2="236.961" y2="217.107" gradientUnits="userSpaceOnUse">
<stop stop-color="#39B54A"/>
<stop offset="1" stop-color="#006838"/>
</linearGradient>
<linearGradient id="paint11_linear_253_99" x1="260.326" y1="144.208" x2="245.605" y2="218.558" gradientUnits="userSpaceOnUse">
<stop stop-color="#39B54A"/>
<stop offset="1" stop-color="#006838"/>
</linearGradient>
<linearGradient id="paint12_linear_253_99" x1="266.802" y1="145.667" x2="252.155" y2="219.644" gradientUnits="userSpaceOnUse">
<stop stop-color="#39B54A"/>
<stop offset="1" stop-color="#006838"/>
</linearGradient>
<linearGradient id="paint13_linear_253_99" x1="210.331" y1="8.04535" x2="117.293" y2="112.502" gradientUnits="userSpaceOnUse">
<stop stop-color="#00AEEF"/>
<stop offset="1" stop-color="#2B3990"/>
</linearGradient>
<linearGradient id="paint14_linear_253_99" x1="262.222" y1="5.23755" x2="169.651" y2="109.17" gradientUnits="userSpaceOnUse">
<stop stop-color="#00AEEF"/>
<stop offset="1" stop-color="#2B3990"/>
</linearGradient>
<linearGradient id="paint15_linear_253_99" x1="115.388" y1="24.385" x2="115.388" y2="248.151" gradientUnits="userSpaceOnUse">
<stop stop-color="#6BBA4F"/>
<stop offset="1" stop-color="#0C5A56"/>
</linearGradient>
<linearGradient id="paint16_linear_253_99" x1="73.3741" y1="182.484" x2="63.755" y2="193.305" gradientUnits="userSpaceOnUse">
<stop stop-color="#262262"/>
<stop offset="1" stop-color="#2B3990"/>
</linearGradient>
</defs>
</svg>
