<svg width="1440" height="1610" viewBox="0 0 1440 1610" fill="none" xmlns="http://www.w3.org/2000/svg">
<path d="M-228.15 866.184C-236.114 1093.47 130.643 1236.65 190.085 1475.21C366.536 1806.45 926.299 1636.57 1123.84 1700.98C1321.37 1765.38 1523.9 1495.46 1581.28 1339.76C1638.66 1184.06 1804.45 1048.47 1799.33 818.344C1794.22 588.22 1619.49 322.679 1321.37 298.704C1023.25 274.73 990.422 -11.0912 811.491 -104.263C632.56 -197.436 34.2077 -157.391 -146.837 -39.1867C-397.598 124.535 -220.187 638.898 -228.15 866.184Z" fill="#ABD7D1" fill-opacity="0.4"/>
<path d="M-96.2678 425.154C-200.839 559.354 28.3097 710.905 -30.8596 881.665C-164.48 1093.43 278.002 1222.24 397.442 1348.39C516.881 1474.54 800.596 1475.73 910.972 1406.7C1021.35 1337.67 1203.88 1328.64 1299.93 1186.95C1395.97 1045.27 1380.83 807.308 1168.8 661.29C956.773 515.271 1012.15 305.429 919.081 170.054C826.008 34.6796 547.934 9.87671 397.109 156.338C246.283 302.799 8.30329 290.954 -96.2678 425.154Z" fill="#A2C8DA" fill-opacity="0.5"/>
<path d="M182.53 709.123C141.991 802.529 326.228 845.614 323.592 951.189C280.416 1092.94 601.1 1085.05 707.226 1133.73C813.352 1182.4 1001.54 1132.08 1059.88 1073.87C1118.22 1015.65 1237.2 977.829 1270.48 881.792C1303.77 785.755 1242.8 656.171 1071.09 613.086C899.373 570.001 891.133 443.377 800.498 384.834C709.863 326.291 520.353 362.469 451.799 471.004C383.246 579.539 223.069 615.717 182.53 709.123Z" fill="#62899B" fill-opacity="0.6"/>
<g filter="url(#filter0_f_63:137)">
<path d="M1311 1049.32C1311 1056.84 1246.08 1062.94 1166 1062.94C1085.92 1062.94 1021 1056.84 1021 1049.32C1021 1041.79 1085.92 1035.69 1166 1035.69C1246.08 1035.69 1311 1041.79 1311 1049.32Z" fill="black" fill-opacity="0.66"/>
</g>
<path d="M1096.75 935.855C1100.23 907.945 1129.45 854.815 1143.63 831.738L1202.5 818.656L1206.31 827.923C1200.64 857.577 1237.39 956.569 1256.46 1002.36L1234.66 1008.36C1231.75 1002 1222.99 983.716 1211.22 961.475C1199.45 939.235 1179.06 886.431 1170.34 862.81C1139.81 878.073 1114.37 980.736 1105.47 1030.16L1077.12 1027.43C1082.21 1008.54 1093.26 963.765 1096.75 935.855Z" fill="#1D4259"/>
<path d="M1055.32 1037.79C1060.55 1036.92 1074.22 1031.25 1080.39 1028.52L1083.12 1025.8L1102.2 1028.52C1100.45 1032.01 1100.38 1040.15 1100.56 1043.79C1088.57 1047.24 1062.73 1053.49 1055.32 1050.87C1046.05 1047.6 1048.78 1038.88 1055.32 1037.79Z" fill="#1D1E33"/>
<path d="M1222.12 1023.07C1227.36 1022.2 1235.57 1009.99 1239.02 1003.99L1251.56 999.088C1258.1 1002.58 1258.28 1009.63 1257.55 1012.72L1236.84 1035.55C1249.56 1032.05 1241.99 1034.43 1236.29 1036.16L1236.84 1035.55C1236.17 1035.74 1235.45 1035.94 1234.66 1036.16C1215.04 1041.61 1215.58 1024.16 1222.12 1023.07Z" fill="#1D1E33"/>
<path d="M1134.6 904.563C1132.28 911.593 1130.31 918.212 1128.91 923.318C1128.91 918.255 1131.15 911.673 1134.6 904.563C1140.7 886.072 1149.21 864.737 1156.16 860.63V848.637L1161.07 851.908L1176.88 848.637L1164.89 859.539C1156.56 869.509 1142.44 888.4 1134.6 904.563Z" fill="#11313F"/>
<path d="M1185.6 644.764C1144.61 616.418 1141.81 638.223 1146.35 653.486C1146.81 655.122 1166.52 657.302 1166.52 662.753C1166.52 667.114 1169.43 667.114 1170.88 666.569C1180.15 643.129 1181.78 668.749 1180.69 674.746C1179.82 679.543 1183.6 679.652 1185.6 679.107C1193.45 655.122 1188.87 646.218 1185.6 644.764Z" fill="#121212"/>
<path d="M1158.34 693.825C1147.44 685.54 1146.17 663.844 1146.9 654.032L1164.34 650.761L1183.42 652.942V672.566C1179.6 683.105 1169.25 702.111 1158.34 693.825Z" fill="#EEA988"/>
<path d="M1161.07 699.821V693.28L1182.33 673.11V696.005C1186.25 696.441 1193.41 702.728 1196.5 705.817L1189.42 716.174L1161.62 719.99C1156.53 716.538 1146.68 708.87 1147.99 705.817C1149.3 702.764 1157.25 700.548 1161.07 699.821Z" fill="#EEA988"/>
<path d="M1114.24 706.151C1114.75 713.44 1122.07 725.384 1125.66 730.445L1116.78 733.482C1114.88 724.979 1102.19 717.083 1100.92 708.581C1099.66 700.078 1102.19 702.507 1104.73 701.9C1106.76 701.414 1110.23 706.151 1111.71 708.581C1111.07 705.544 1113.61 697.041 1114.24 706.151Z" fill="#EEA988"/>
<path d="M1171.97 713.449C1176.33 711.632 1186.25 705.926 1191.05 697.64C1199.05 699.821 1215.69 706.689 1218.31 716.719C1220.02 723.289 1213.8 739.436 1205.77 753.712V827.922C1183.09 841.441 1151.98 838.643 1139.27 835.554C1142.46 827.169 1142.55 787.068 1142.12 763.204C1142.08 763.154 1142.03 763.104 1141.99 763.054C1140.79 761.649 1139.6 760.261 1138.43 758.895C1136.72 760.375 1134.34 762.859 1131.09 766.87C1123.68 776.028 1116.73 770.685 1114.19 766.87L1083.12 725.441L1094.57 717.81L1122.91 747.791C1123.63 747.97 1124.83 747.232 1126.12 744.457C1117.98 734.881 1111.75 727.548 1108.76 724.214L1119.67 717.81L1130.05 727.824C1132.39 711.478 1147.68 703.076 1155.07 700.911C1160.74 710.069 1168.7 713.085 1171.97 713.449Z" fill="#D44040"/>
<path d="M1182.33 775.592C1174.91 779.517 1167.25 777.954 1164.34 776.682C1182.66 776.682 1191.96 763.963 1194.32 757.603L1197.05 760.329C1195.23 763.781 1189.74 771.667 1182.33 775.592Z" fill="#9A3535"/>
<path d="M1287 286C1192.58 399.871 1134.15 355.481 1091.19 455.456L1085 628C1246.91 571.489 1277.33 404.889 1287 286Z" fill="url(#paint0_linear_63:137)" fill-opacity="0.8"/>
<path d="M1166 337C1120.77 356.719 1090.49 389.892 1081 404.014L1089.58 451C1124.2 433.746 1154.95 367.811 1166 337Z" fill="url(#paint1_linear_63:137)" fill-opacity="0.8"/>
<path d="M1227.15 384C1195.71 426.321 1122.62 498.426 1090 529.188V540C1155.34 483.469 1211.22 412.446 1231 384H1227.15Z" fill="white"/>
<path d="M1124.29 377L1090 416.552L1094.19 425L1130 377H1124.29Z" fill="white"/>
<path d="M216 340.975C260.085 408.554 257.765 520.156 348.638 558L373 461.845C342.992 374.417 299.141 321.667 216 340.975Z" fill="url(#paint2_linear_63:137)" fill-opacity="0.7"/>
<path d="M167 166.598C245.447 191.734 210.281 356.087 349.4 411L395 333.271C380.47 164.355 236.946 151.774 167 166.598Z" fill="url(#paint3_linear_63:137)"/>
<path d="M253 213.997C296.693 241.057 332.924 303.941 345.577 332L351 318.547C326.519 264.119 275.466 222.838 253 209V213.997Z" fill="white"/>
<path d="M279 394.846C322.863 440.385 346.61 487.923 353 506V492.923C342.264 458.462 299.193 410.615 279 391V394.846Z" fill="white"/>
<g filter="url(#filter1_f_63:137)">
<ellipse cx="225.899" cy="984.485" rx="130.899" ry="12.3025" fill="black" fill-opacity="0.66"/>
</g>
<path d="M385.832 773.437C380.714 772.65 372.873 779.342 369.593 782.787L372.545 792.629C375.006 790.332 381.403 786.232 387.308 788.2C391.737 789.676 391.737 786.232 390.753 786.232C388.358 786.232 388.129 785.575 387.308 784.755C389.277 784.591 393.509 783.574 394.69 780.818C396.166 777.374 392.229 774.421 385.832 773.437Z" fill="#FED5CF"/>
<path d="M337.114 720.77C347.744 719.982 353.682 704.038 355.322 696.165L344.496 693.212L323.335 700.102C323.335 704.432 315.134 711.092 311.033 713.88C315.757 714.668 321.203 721.426 323.335 724.707C326.879 718.801 333.998 719.622 337.114 720.77Z" fill="#FED5CF"/>
<path d="M340.068 672.052C320.384 670.871 319.727 690.259 321.86 700.101C322.525 706.4 332.635 704.694 337.607 703.054C341.938 692.424 346.629 700.265 348.433 705.514L358.275 695.672C360.408 688.291 359.752 673.233 340.068 672.052Z" fill="#211D71"/>
<path d="M269.696 717.325L247.06 729.628C241.548 733.958 241.483 739.634 242.139 741.93L255.918 763.091C247.257 770.571 239.842 784.579 237.218 790.648C247.847 804.033 274.453 810.988 286.428 812.793C292.333 796.652 312.837 780.15 322.351 773.917C323.007 778.346 324.812 788.877 326.78 795.569C328.749 802.262 334.818 802.951 337.606 802.459C350.401 800.162 376.089 794.585 376.482 790.648C376.876 786.711 374.022 780.806 372.546 778.346C368.215 781.102 351.385 783.759 343.512 784.743C344.332 774.737 343.61 750.886 334.162 735.533C324.713 720.179 313.822 714.701 309.557 713.88H286.428C276.98 713.487 271.337 716.013 269.696 717.325Z" fill="#FE5D63"/>
<path d="M258.379 745.375L260.839 750.296L262.808 751.772L261.823 745.375C261.036 742.619 262.151 740.946 262.808 740.454L269.697 731.104L259.855 738.486C256.706 741.241 257.559 744.227 258.379 745.375Z" fill="#E14958"/>
<path d="M319.399 858.558C317.825 852.259 294.466 822.142 282.984 807.871L241.647 790.156C233.38 788.581 229.673 804.591 228.853 812.792C221.963 827.227 207.692 858.656 205.724 868.892C203.755 879.128 197.358 887.264 194.406 890.052L147.164 950.581L176.69 954.026C185.876 939.591 208.086 907.866 223.44 896.45C238.793 885.033 249.521 851.34 252.966 835.921C265.268 842.647 290.759 859.739 294.302 874.305C297.845 888.871 275.11 938.114 263.3 960.915H289.873C290.365 955.01 314.97 893.497 319.399 881.687C323.828 869.876 321.368 866.431 319.399 858.558Z" fill="#A13449"/>
<path d="M268.713 983.552C263.595 979.615 266.58 967.148 268.713 961.407H285.936C283.574 965.344 286.264 967.641 287.904 968.297C294.302 968.461 308.376 969.871 313.494 974.202C318.612 978.532 315.626 982.24 313.494 983.552H268.713Z" fill="#701D27"/>
<path d="M153.068 956.486L155.037 951.073H171.768C170.292 951.073 167.93 952.451 170.292 957.962C172.654 963.474 179.806 966.164 183.086 966.82C192.141 975.087 186.859 976.826 183.086 976.662H149.624C146.868 966.82 150.772 959.11 153.068 956.486Z" fill="#701D27"/>
<path d="M243.615 826.52L236.234 852.109L225.9 889.509L236.234 875.73C245.682 859.195 249.356 839.971 250.013 832.425L243.615 826.52Z" fill="#872633"/>
<rect width="128.374" height="85.5823" rx="5" transform="matrix(-1 0 0 1 334.374 581.781)" fill="#5DD1BD"/>
<path d="M300.351 679.289L308.552 666.136L292.15 666.136L300.351 679.289Z" fill="#5DD1BD"/>
<path d="M237.219 609.844C239.531 609.844 241.531 610.234 243.219 611.016C244.938 611.766 246.266 612.797 247.203 614.109C248.141 615.422 248.609 616.938 248.609 618.656C248.609 620.188 248.172 621.594 247.297 622.875C246.422 624.125 245.328 625.062 244.016 625.688C244.953 625.875 245.875 626.266 246.781 626.859C247.688 627.453 248.438 628.266 249.031 629.297C249.656 630.328 249.969 631.609 249.969 633.141C249.969 634.891 249.469 636.469 248.469 637.875C247.469 639.281 246.031 640.406 244.156 641.25C242.312 642.062 240.125 642.469 237.594 642.469C235.656 642.469 233.625 642.344 231.5 642.094C229.406 641.875 227.625 641.609 226.156 641.297V611.016C227.781 610.641 229.547 610.359 231.453 610.172C233.391 609.953 235.312 609.844 237.219 609.844ZM236.938 613.828C235.625 613.828 234.438 613.875 233.375 613.969C232.344 614.062 231.344 614.203 230.375 614.391V624.234H237.734C239.859 624.234 241.484 623.703 242.609 622.641C243.734 621.547 244.297 620.281 244.297 618.844C244.297 617.719 243.953 616.797 243.266 616.078C242.578 615.328 241.672 614.766 240.547 614.391C239.453 614.016 238.25 613.828 236.938 613.828ZM230.375 637.922C231.5 638.141 232.75 638.297 234.125 638.391C235.5 638.453 236.625 638.484 237.5 638.484C239.844 638.484 241.781 638 243.312 637.031C244.875 636.062 245.656 634.766 245.656 633.141C245.656 631.422 244.891 630.141 243.359 629.297C241.859 628.422 240.016 627.984 237.828 627.984H230.375V637.922ZM283.672 610.5V629.578C283.672 632.297 283.094 634.641 281.938 636.609C280.812 638.547 279.281 640.031 277.344 641.062C275.406 642.094 273.203 642.609 270.734 642.609C268.297 642.609 266.094 642.094 264.125 641.062C262.188 640.031 260.641 638.547 259.484 636.609C258.359 634.641 257.797 632.297 257.797 629.578V610.5H262.016V629.438C262.016 631.562 262.406 633.281 263.188 634.594C264 635.906 265.062 636.859 266.375 637.453C267.719 638.016 269.172 638.297 270.734 638.297C272.297 638.266 273.734 637.969 275.047 637.406C276.391 636.812 277.453 635.875 278.234 634.594C279.047 633.281 279.453 631.562 279.453 629.438V610.5H283.672ZM317.469 610.594L305.422 629.109V642H300.875V629.719L288.828 610.594H293.891L303.078 625.406L312.406 610.594H317.469Z" fill="white"/>
<defs>
<filter id="filter0_f_63:137" x="984" y="998.688" width="364" height="101.256" filterUnits="userSpaceOnUse" color-interpolation-filters="sRGB">
<feFlood flood-opacity="0" result="BackgroundImageFix"/>
<feBlend mode="normal" in="SourceGraphic" in2="BackgroundImageFix" result="shape"/>
<feGaussianBlur stdDeviation="18.5" result="effect1_foregroundBlur_63:137"/>
</filter>
<filter id="filter1_f_63:137" x="58" y="935.182" width="335.798" height="98.605" filterUnits="userSpaceOnUse" color-interpolation-filters="sRGB">
<feFlood flood-opacity="0" result="BackgroundImageFix"/>
<feBlend mode="normal" in="SourceGraphic" in2="BackgroundImageFix" result="shape"/>
<feGaussianBlur stdDeviation="18.5" result="effect1_foregroundBlur_63:137"/>
</filter>
<linearGradient id="paint0_linear_63:137" x1="1186" y1="286" x2="1186" y2="628" gradientUnits="userSpaceOnUse">
<stop stop-color="#60DE33"/>
<stop offset="1" stop-color="#0C5A56"/>
</linearGradient>
<linearGradient id="paint1_linear_63:137" x1="1123.5" y1="337" x2="1123.5" y2="451" gradientUnits="userSpaceOnUse">
<stop stop-color="#60DE33"/>
<stop offset="1" stop-color="#0C5A56"/>
</linearGradient>
<linearGradient id="paint2_linear_63:137" x1="294.5" y1="337" x2="294.5" y2="558" gradientUnits="userSpaceOnUse">
<stop stop-color="#60DE33"/>
<stop offset="1" stop-color="#0C5A56"/>
</linearGradient>
<linearGradient id="paint3_linear_63:137" x1="281" y1="162" x2="281" y2="411" gradientUnits="userSpaceOnUse">
<stop stop-color="#60DE33"/>
<stop offset="1" stop-color="#0C5A56"/>
</linearGradient>
</defs>
</svg>
